HIERARCHY
ROOT Hips
{
	OFFSET -32.860001 56.121803 44.745396
	CHANNELS 6 Xposition Yposition Zposition Zrotation Xrotation Yrotation
	JOINT Chest
	{
		OFFSET -0.637402 0.831600 5.390099
		CHANNELS 6 Xposition Yposition Zposition Zrotation Xrotation Yrotation
		JOINT Chest2
		{
			OFFSET 0.000000 0.000000 4.429901
			CHANNELS 6 Xposition Yposition Zposition Zrotation Xrotation Yrotation
			JOINT Neck
			{
				OFFSET 0.000000 0.000000 10.301395
				CHANNELS 6 Xposition Yposition Zposition Zrotation Xrotation Yrotation
				JOINT Head
				{
					OFFSET 0.000000 0.000000 2.173897
					CHANNELS 6 Xposition Yposition Zposition Zrotation Xrotation Yrotation
					End Site
					{
						OFFSET 0.000000 0.000000 8.298004
					}
				}
			}
			JOINT LeftCollar
			{
				OFFSET 2.142401 -0.572701 5.717800
				CHANNELS 6 Xposition Yposition Zposition Zrotation Xrotation Yrotation
				JOINT LeftShoulder
				{
					OFFSET 5.674000 0.000000 0.000000
					CHANNELS 6 Xposition Yposition Zposition Zrotation Xrotation Yrotation
					JOINT LeftElbow
					{
						OFFSET 0.000000 0.000000 -12.238701
						CHANNELS 6 Xposition Yposition Zposition Zrotation Xrotation Yrotation
						JOINT LeftWrist
						{
							OFFSET 0.000000 0.000000 -10.253700
							CHANNELS 6 Xposition Yposition Zposition Zrotation Xrotation Yrotation
							End Site
							{
								OFFSET 0.000000 0.000000 -2.173901
							}
						}
					}
				}
			}
			JOINT RightCollar
			{
				OFFSET -2.882599 -1.580101 6.695801
				CHANNELS 6 Xposition Yposition Zposition Zrotation Xrotation Yrotation
				JOINT RightShoulder
				{
					OFFSET -4.235600 0.000000 0.000000
					CHANNELS 6 Xposition Yposition Zposition Zrotation Xrotation Yrotation
					JOINT RightElbow
					{
						OFFSET 0.000000 0.000000 -10.709900
						CHANNELS 6 Xposition Yposition Zposition Zrotation Xrotation Yrotation
						JOINT RightWrist
						{
							OFFSET 0.000000 0.000000 -11.716801
							CHANNELS 6 Xposition Yposition Zposition Zrotation Xrotation Yrotation
							End Site
							{
								OFFSET 0.000000 0.000000 -2.173901
							}
						}
					}
				}
			}
		}
	}
	JOINT LeftHip
	{
		OFFSET 2.279499 0.210400 -2.475502
		CHANNELS 6 Xposition Yposition Zposition Zrotation Xrotation Yrotation
		JOINT LeftKnee
		{
			OFFSET 0.000000 -0.000004 -20.742800
			CHANNELS 6 Xposition Yposition Zposition Zrotation Xrotation Yrotation
			JOINT LeftAnkle
			{
				OFFSET 0.000000 0.000000 -16.666000
				CHANNELS 6 Xposition Yposition Zposition Zrotation Xrotation Yrotation
				End Site
				{
					OFFSET 0.000000 -8.310898 0.000000
				}
			}
		}
	}
	JOINT RightHip
	{
		OFFSET -1.961899 0.232300 -2.727402
		CHANNELS 6 Xposition Yposition Zposition Zrotation Xrotation Yrotation
		JOINT RightKnee
		{
			OFFSET 0.000000 -0.000004 -20.526800
			CHANNELS 6 Xposition Yposition Zposition Zrotation Xrotation Yrotation
			JOINT RightAnkle
			{
				OFFSET 0.000000 0.000000 -16.867300
				CHANNELS 6 Xposition Yposition Zposition Zrotation Xrotation Yrotation
				End Site
				{
					OFFSET 0.000000 -7.186401 0.000000
				}
			}
		}
	}
}
MOTION
Frames: 6
Frame Time: 0.041667
17.909702 36.052307 42.728191 1863.352104 -0.428477 3.634701 -0.637394 0.831603 5.390102 -16.115382 1.505729 5.054472 -0.000000 0.000000 4.429898 3.313620 -1.982161 -0.361477 -0.000002 0.000006 10.301397 417.850920 6.426003 -4.351949 -0.000001 0.000001 2.173902 -357.379512 5.049688 4.870389 2.142399 -0.572697 5.717804 -2.640658 -4.782852 1.012658 5.673995 0.000008 0.000004 145.006460 -520.843944 94.412469 0.000002 0.000007 -12.238705 -881.644862 207.862437 -175.396130 0.000009 0.000009 -10.253707 177.370273 13.782764 -10.854666 -2.882601 -1.580093 6.695796 7.109390 8.929694 11.924620 -4.235604 0.000005 -0.000006 -1095.124992 7.248579 -680.661901 0.000010 0.000004 -10.709907 163.869571 -161.409692 165.588729 -0.000004 0.000000 -11.716798 -1233.291851 10.051557 -41.341830 2.279507 0.210402 -2.475502 401.263669 -32.005098 17.747584 -0.000008 0.000002 -20.742796 -444.557287 33.774295 47.238203 -0.000004 -0.000003 -16.666002 418.261606 3.015268 46.031585 -1.961890 0.232305 -2.727404 -1107.231475 -23.576363 3.701899 -0.000001 -0.000006 -20.526796 958.870805 112.446524 -219.723443 0.000003 -0.000007 -16.867302 -22.136168 33.596608 -5.079812
18.563004 35.765308 42.680992 1865.437880 -0.587898 3.297006 -0.637408 0.831595 5.390102 -16.254257 1.557738 5.307283 -0.000003 -0.000000 4.429899 3.381203 -2.016776 -0.361317 -0.000007 -0.000000 10.301401 417.379091 6.489072 -4.163390 -0.000001 0.000002 2.173902 -357.458387 4.911779 4.709249 2.142396 -0.572712 5.717806 -2.670951 -4.789161 1.071613 5.673996 0.000010 0.000000 144.316788 -520.890280 94.595115 0.000000 -0.000001 -12.238697 -882.158820 207.933320 -175.416975 0.000003 -0.000014 -10.253695 177.644259 13.937773 -11.006639 -2.882606 -1.580102 6.695799 7.004841 8.909078 12.225670 -4.235611 0.000005 0.000001 -1095.362464 6.889487 -680.955927 0.000006 -0.000009 -10.709900 163.353249 -161.340420 165.373824 0.000000 -0.000007 -11.716802 -1232.839747 10.029232 -41.395287 2.279497 0.210400 -2.475505 399.777229 -31.442851 17.492166 -0.000005 -0.000007 -20.742798 -446.525529 32.726093 49.271205 -0.000005 0.000003 -16.665998 419.296652 2.925913 46.207831 -1.961900 0.232296 -2.727409 -1110.363417 -25.944644 1.961290 0.000001 -0.000003 -20.526802 970.391640 111.199250 -228.572335 0.000003 -0.000000 -16.867302 -22.379938 34.462129 -5.620859
19.196312 35.496704 42.635994 1867.546386 -0.692084 2.979132 -0.637405 0.831598 5.390086 -16.400205 1.619773 5.551883 -0.000010 0.000000 4.429897 3.470688 -2.060069 -0.363973 -0.000004 -0.000002 10.301408 416.895868 6.514833 -3.962916 0.000002 0.000003 2.173901 -357.568517 4.824527 4.650871 2.142399 -0.572698 5.717802 -2.687096 -4.807348 1.120880 5.673997 0.000007 0.000005 143.571341 -520.920005 94.778690 -0.000013 0.000001 -12.238697 -882.755614 207.999969 -175.456112 0.000008 -0.000006 -10.253707 177.945566 14.106788 -11.165437 -2.882609 -1.580100 6.695797 6.955705 8.942364 12.088059 -4.235600 0.000010 -0.000003 -1095.663539 6.385496 -680.941337 0.000007 -0.000001 -10.709901 162.896515 -161.264455 165.176568 -0.000002 -0.000001 -11.716804 -1232.603914 10.047504 -41.434321 2.279495 0.210402 -2.475506 398.359090 -30.881789 17.373184 -0.000004 0.000003 -20.742804 -447.907741 31.965111 50.913391 -0.000004 -0.000000 -16.666000 419.956285 3.018802 45.686080 -1.961897 0.232298 -2.727408 -1113.453176 -28.214948 -0.089895 0.000000 -0.000008 -20.526806 981.419172 110.913953 -236.998330 0.000006 -0.000000 -16.867296 -22.788342 34.962587 -5.791752
19.811317 35.243908 42.592091 1869.690301 -0.762567 2.694988 -0.637403 0.831598 5.390102 -16.529389 1.720253 5.761849 -0.000002 -0.000005 4.429902 3.547633 -2.110117 -0.360624 -0.000001 0.000005 10.301395 416.361420 6.525006 -3.742272 0.000004 -0.000001 2.173893 -357.657747 4.731849 4.583490 2.142396 -0.572694 5.717803 -2.637812 -4.857219 1.168168 5.673988 0.000003 0.000002 142.719125 -520.998142 94.986239 0.000002 0.000006 -12.238700 -883.501252 208.089213 -175.562568 -0.000009 -0.000008 -10.253706 178.002106 13.913239 -10.752658 -2.882598 -1.580091 6.695801 6.876903 8.977156 12.047569 -4.235601 0.000007 -0.000004 -1095.923633 5.851913 -681.082859 0.000002 -0.000001 -10.709891 162.373951 -161.219334 164.947088 0.000000 -0.000015 -11.716802 -1232.256503 10.082974 -41.470419 2.279499 0.210406 -2.475497 397.015264 -30.362872 17.363024 -0.000004 -0.000002 -20.742802 -449.299133 31.247521 52.414752 -0.000003 0.000001 -16.666002 420.619223 3.167597 44.979046 -1.961896 0.232298 -2.727401 -1116.442832 -30.359662 -2.427656 -0.000003 -0.000014 -20.526798 990.591187 111.302925 -243.725902 0.000004 -0.000001 -16.867300 -22.700438 34.893705 -7.263411
20.409210 35.003105 42.549889 1871.940220 -1.246572 2.724055 -0.637404 0.831604 5.390099 -16.715484 2.539749 5.713306 -0.000000 -0.000005 4.429893 3.518851 -2.195534 -0.341179 0.000000 -0.000002 10.301397 415.789050 6.526643 -3.325845 0.000002 -0.000007 2.173897 -357.675205 4.646569 4.486467 2.142400 -0.572697 5.717806 -2.333758 -5.112005 1.327818 5.673993 -0.000004 0.000000 141.716344 -521.222992 95.217188 0.000002 0.000004 -12.238701 -884.455949 208.255364 -175.782855 0.000009 -0.000002 -10.253702 178.741720 13.863781 -10.699590 -2.882597 -1.580097 6.695798 6.849259 8.800820 11.938966 -4.235605 0.000008 -0.000004 -1096.075864 5.312556 -681.107393 0.000000 0.000008 -10.709900 161.813397 -161.228282 164.736417 -0.000004 -0.000008 -11.716808 -1231.769975 10.180849 -41.518948 2.279506 0.210407 -2.475501 395.374598 -29.662163 16.855464 -0.000002 -0.000002 -20.742798 -450.474881 30.690670 53.698452 -0.000001 0.000000 -16.666004 421.176894 3.419976 43.860743 -1.961895 0.232302 -2.727399 -1119.222446 -31.703761 -4.757704 0.000000 -0.000003 -20.526793 996.761963 111.864264 -247.695799 0.000000 -0.000000 -16.867300 -22.953151 34.476046 -6.957384
20.995113 34.771301 42.512493 1874.189264 -1.699248 2.832383 -0.637404 0.831599 5.390102 -16.799900 3.401649 5.562760 -0.000006 0.000004 4.429899 3.436505 -2.283801 -0.317657 -0.000010 -0.000001 10.301396 415.121850 6.528857 -2.885989 0.000007 0.000001 2.173901 -357.656681 4.580630 4.370155 2.142388 -0.572697 5.717794 -1.990666 -5.369957 1.487606 5.673992 -0.000003 -0.000002 140.666489 -521.482539 95.494248 -0.000009 0.000005 -12.238708 -885.186178 208.441801 -175.899883 0.000005 -0.000009 -10.253700 179.281223 13.783340 -10.670419 -2.882608 -1.580097 6.695795 6.824036 8.567385 11.824049 -4.235609 0.000006 -0.000008 -1096.159684 4.810981 -681.142364 0.000001 -0.000006 -10.709895 161.316227 -161.276025 164.564433 -0.000002 -0.000001 -11.716806 -1231.224872 10.310867 -41.582113 2.279499 0.210407 -2.475496 393.804392 -28.970090 16.374817 -0.000001 -0.000006 -20.742798 -451.503672 30.312287 54.806811 -0.000004 0.000001 -16.666000 421.639981 3.698478 42.474532 -1.961893 0.232306 -2.727406 -1121.622520 -32.760541 -7.021620 0.000001 0.000004 -20.526808 999.533599 112.240902 -248.570938 0.000005 -0.000005 -16.867300 -22.717651 33.619970 -6.649688
